<?xml version="1.0" standalone="no"?>
<!DOCTYPE svg PUBLIC "-//W3C//DTD SVG 1.1//EN" "http://www.w3.org/Graphics/SVG/1.1/DTD/svg11.dtd" >
<svg xmlns="http://www.w3.org/2000/svg">
<metadata>Generated by IcoMoon</metadata>
<defs>
<font id="iconfont" horiz-adv-x="1024">
<font-face units-per-em="1024" ascent="960" descent="-64" />
<missing-glyph horiz-adv-x="1024" />
<glyph unicode="&#x20;" horiz-adv-x="512" d="" />
<glyph unicode="&#xe900;" glyph-name="checkbox-indeterminate-fill" d="M170.667 832h682.667c23.564 0 42.667-19.103 42.667-42.667v0-682.667c0-23.564-19.103-42.667-42.667-42.667v0h-682.667c-23.564 0-42.667 19.103-42.667 42.667v0 682.667c0 23.564 19.103 42.667 42.667 42.667v0zM298.667 490.667v-85.333h426.667v85.333h-426.667z" />
<glyph unicode="&#xe901;" glyph-name="down-out" d="M64 609c0 8 3 16 9 22.2 12.3 12.7 32.6 13.1 45.3 0.8l394.1-380.5 393.3 380.5c12.7 12.3 33 12 45.3-0.7s12-33-0.7-45.3l-415.6-402c-12.4-12-32.1-12-44.5 0l-416.4 402c-6.5 6.3-9.8 14.6-9.8 23z" />
<glyph unicode="&#xe902;" glyph-name="nav-report-project" horiz-adv-x="1229" d="M1197.926 226.731c0-150.562-308.599-231.799-598.972-231.799-7.919 0-15.906 0.273-23.859 0.41-13.995-31.983-45.841-54.374-83.012-54.374-41.54 0-76.22 28.092-86.938 66.219-219.034 27.785-405.163 102.639-405.163 219.546 0 46.148 15.497 108.237 159.334 162.27l23.996-63.932c-81.237-30.515-115.063-64.614-115.063-98.338 0-54.204 127.522-125.201 344.337-152.269 15.292 28.365 44.988 47.889 79.497 47.889 38.81 0 71.68-24.474 84.617-58.743 7.475-0.102 14.643-0.41 22.255-0.41 328.806 0 530.705 95.232 530.705 163.533 0 28.774-23.723 55.979-86.733 84.036l27.785 62.327c116.258-54.306 127.215-105.165 127.215-146.364zM392.209 503.313c22.767 0 41.233-18.466 41.233-41.233s-18.466-41.233-41.233-41.233c-22.767 0-41.233 18.466-41.233 41.233s18.466 41.233 41.233 41.233zM392.209 663.603c22.767 0 41.233-18.466 41.233-41.233s-18.466-41.199-41.233-41.199c-22.767 0-41.233 18.432-41.233 41.199s18.466 41.233 41.233 41.233zM563.9 499.217h274.842c22.903 0 41.233-18.295 41.233-41.199 0-22.938-18.33-41.233-41.233-41.233h-274.842c-22.903 0-41.199 18.295-41.199 41.233 0 22.903 18.295 41.199 41.199 41.199zM563.9 661.828h274.842c22.903 0 41.233-18.295 41.233-41.199s-18.33-41.233-41.233-41.233h-274.842c-22.903 0-41.199 18.33-41.199 41.233s18.295 41.199 41.199 41.199zM261.581 222.123h714.547c59.563 0 50.415 61.85 50.415 61.85v515.277c0 61.85-57.276 57.242-57.276 57.242h-322.901c-18.33 0-29.764 9.182-29.764 9.182s-13.756 22.903-38.946 59.563c-22.903 41.199-52.668 34.338-52.668 34.338h-249.651c-70.997 0-70.997-66.423-70.997-66.423v-604.604c0-75.571 57.242-66.423 57.242-66.423z" />
<glyph unicode="&#xe903;" glyph-name="nav-report-ad-plan" horiz-adv-x="1152" d="M546.365 67.341c0-46.944-38.080-85.024-85.024-85.024-46.976 0-85.024 38.080-85.024 85.024 0 46.976 38.048 85.024 85.024 85.024 46.944 0 85.024-38.048 85.024-85.024zM1123.037 250.221c0-141.152-289.312-217.312-561.504-217.312-7.424 0-14.912 0.288-22.368 0.416 4.576 10.432 7.2 21.888 7.2 34.016 0 10.592-2.176 20.608-5.696 29.952 7.008-0.096 13.728-0.384 20.864-0.384 308.256 0 497.504 89.28 497.504 153.312 0 26.976-35.232 58.784-94.272 85.088l-29.248 12.992 26.048 58.464 29.216-13.024c109.312-48.64 132.256-104.896 132.256-143.52zM379.805 44.429c-205.344 26.016-379.808 96.224-379.808 205.792 0 43.232 28.32 105.472 163.136 156.128l29.952 11.232 22.528-59.904-29.952-11.264c-76.192-28.608-121.664-64.576-121.664-96.192 0-50.816 119.552-117.376 322.784-142.752-6.464-12-10.464-25.536-10.464-40.128 0-8 1.44-15.552 3.488-22.912zM726.845 798.733c-9.248 0-17.792 2.72-24.192 8.832-6.4 6.080-9.952 14.208-9.952 23.040v63.712c0 17.6 14.944 31.84 34.848 31.84 19.936 0 34.848-14.24 34.848-31.84v-63.712c-0.704-17.632-17.056-31.872-35.552-31.872zM425.245 798.733c-18.496 0-34.848 14.24-34.848 31.872v63.712c0 17.6 16.352 31.84 34.848 31.84s34.848-14.24 34.848-31.84v-63.712c0-17.632-14.944-31.872-34.848-31.872zM746.749 616.461h-341.408c-14.944 0-28.448 12.192-28.448 27.104s13.504 27.104 28.448 27.104h342.144c14.912 0 27.712-12.192 27.712-27.104s-12.096-27.104-28.448-27.104zM746.749 482.285h-341.408c-14.944 0-28.448 12.192-28.448 27.072 0 14.912 13.504 27.136 28.448 27.136h342.144c14.912 0 27.712-12.224 27.712-27.136 0-14.88-12.096-27.072-28.448-27.072zM751.741 347.437h-350.688c-13.504 0-23.456 12.192-23.456 27.104 0 15.584 10.688 27.072 23.456 27.072h351.392c12.096 0 22.752-12.192 22.752-27.072 0-14.24-11.36-27.104-23.456-27.104zM861.277 855.693h-64.736v-31.872c0-35.232-31.296-63.712-68.992-63.712s-68.992 28.48-68.992 63.712v31.872h-165.024v-31.872c0-35.232-31.296-63.712-68.992-63.712s-68.992 28.48-68.992 63.712v31.872h-64.736c-18.496 0-34.848-14.272-34.848-31.872v-548.928c0-8.8 3.552-16.928 9.952-23.008 6.4-6.112 14.944-9.504 24.192-8.832h568.32c19.2 0 34.848 13.568 36.992 31.84v548.928c0.704 17.6-14.24 31.872-34.144 31.872z" />
<glyph unicode="&#xe904;" glyph-name="nav-report-ad-group" horiz-adv-x="1229" d="M512.205 135.796c-50.108 0-90.692-40.585-90.692-90.692 0-50.074 40.585-90.692 90.692-90.692s90.692 40.619 90.692 90.692c0 50.108-40.585 90.692-90.692 90.692v0zM1076.941 393.264l-20.753 9.455-27.785-62.362 20.787-9.421c62.976-28.058 100.591-62.020 100.591-90.761 0-68.301-201.899-163.533-530.705-163.533-7.578 0-14.78 0.273-22.255 0.375 3.755-9.967 6.076-20.617 6.076-31.915 0-12.937-2.799-25.19-7.68-36.318 7.953-0.137 15.94-0.41 23.859-0.41 290.372 0 598.972 81.203 598.972 231.799 0 41.199-24.508 101.171-141.107 153.088v0zM421.513 45.104c0 15.565 4.267 30.003 11.196 42.803-216.815 27.068-344.337 98.065-344.337 152.269 0 33.724 48.503 72.090 129.775 102.571l22.221 8.329-23.996 63.898-22.221-8.26c-143.838-54.033-174.046-120.422-174.046-166.537 0-116.873 186.129-191.761 405.163-219.511-2.219 7.817-3.755 15.94-3.755 24.439v0zM265.626 727.941c0.512-14.234 6.861-25.805 17.237-32.393l295.936-153.156c32.768-13.312 70.417-12.015 102.229 3.379l317.508 173.431c26.419 15.223 25.293 48.742-2.048 62.225l-322.867 152.269c-32.905 18.057-70.588 16.828-102.229-3.379l-290.577-172.51c-6.963-5.257-15.667-15.394-15.189-29.867v0zM588.459 204.233c26.897-13.414 68.062-12.937 100.352 0.444l330.377 206.199v75.878l-318.874-197.939c-15.735-9.762-26.931-13.722-51.849-17.579h-21.47c-18.91 2.15-36.727 8.397-49.937 15.633l-311.603 169.779v-80.35l323.004-172.066zM265.455 546.864v79.462l329.83-180.258c27.75-10.411 53.862-11.981 85.777-0.137l338.125 198.076v-79.428l-333.824-198.485c-32.29-14.029-70.007-14.029-96.905 0l-323.004 180.77z" />
<glyph unicode="&#xe905;" glyph-name="nav-report-idea" horiz-adv-x="1189" d="M496.894 126.223c-48.491 0-87.767-39.275-87.767-87.767s39.275-87.767 87.767-87.767c48.458 0 87.767 39.275 87.767 87.767s-39.308 87.767-87.767 87.767zM1043.413 375.385l-20.084 9.15-26.888-60.35 20.117-9.117c60.945-27.153 97.346-60.020 97.346-87.833 0-66.098-195.386-158.258-513.586-158.258-7.366 0-14.303 0.264-21.537 0.363 3.634-9.645 5.88-19.985 5.88-30.885 0-12.519-2.709-24.411-7.432-35.179 7.697-0.099 15.426-0.363 23.090-0.363 281.005 0 579.65 78.584 579.65 224.322 0 39.87-23.717 97.908-136.555 148.15zM409.128 38.456c0 15.063 4.129 29.035 10.802 41.422-209.788 26.195-333.196 94.902-333.196 147.357 0 32.636 46.939 69.764 125.589 99.262l21.504 8.060-23.222 61.836-21.504-7.994c-139.198-52.29-168.431-116.538-168.431-161.164 0-113.135 180.125-185.608 392.093-212.43-2.147 7.531-3.634 15.393-3.634 23.651zM841.652 563.174c16.813 0 31.017 5.781 42.678 17.441 11.66 11.627 17.441 26.195 17.441 43.669 0 17.441-5.781 31.876-17.441 43.173-11.363 11.198-26.756 17.309-42.678 16.946-16.846 0-31.182-5.781-43.173-17.441-11.726-11.066-18.234-26.591-17.97-42.678 0-16.846 5.847-31.182 17.474-43.173s26.195-17.937 43.669-17.937zM720.391 724.206c16.813 0 31.050 5.814 42.678 17.474 11.627 11.594 17.441 26.195 17.441 43.636s-5.814 31.876-17.441 43.173c-11.363 11.198-26.756 17.309-42.678 16.946-16.846 0-31.215-5.781-43.206-17.441-11.693-11.066-18.234-26.558-17.903-42.678 0-16.846 5.814-31.182 17.441-43.173s26.195-17.937 43.669-17.937zM519.554 724.206c16.846 0 31.050 5.814 42.711 17.474 11.627 11.594 17.441 26.195 17.441 43.636s-5.814 31.876-17.441 43.173c-11.363 11.198-26.756 17.309-42.711 16.946-16.813 0-31.182-5.781-43.173-17.441-11.726-11.066-18.234-26.558-17.937-42.678 0-16.846 5.814-31.182 17.474-43.173 11.627-11.991 26.195-17.937 43.636-17.937zM398.293 563.174c16.846 0 31.050 5.781 42.678 17.441 11.66 11.627 17.474 26.195 17.474 43.669 0 17.441-5.814 31.876-17.474 43.173-11.33 11.198-26.723 17.309-42.678 16.946-16.846 0-31.182-5.781-43.173-17.441-11.726-11.066-18.234-26.591-17.937-42.678 0-16.846 5.814-31.182 17.441-43.173 11.66-11.991 26.195-17.937 43.669-17.937zM619.477 926.965c65.965 0 127.108-14.904 183.362-44.633 54.966-28.474 98.601-67.254 130.973-116.439 32.471-48.128 49.714-104.91 49.485-162.948 0-36.236-9.086-69.863-27.188-100.914-36.369-62.398-103.358-100.517-175.599-99.89h-69.83c-16.846 0-31.182-5.847-43.173-17.474-11.726-11.099-18.234-26.558-17.937-42.711 0-14.865 5.186-28.11 15.525-39.771 4.492-5.186 8.225-11.627 11.132-19.39 2.94-7.763 4.393-15.195 4.393-22.33 0-17.441-5.979-31.975-17.97-43.636-11.429-11.462-26.987-17.738-43.173-17.474-65.965 0-127.075 16.516-183.329 49.482-54.239 31.612-99.394 76.734-130.973 130.973-32.801 55.494-49.879 118.883-49.489 183.362 0 65.965 16.49 127.075 49.489 183.329 31.579 54.239 76.734 99.361 130.973 130.973 55.494 32.768 118.883 49.879 183.329 49.489z" />
<glyph unicode="&#xe906;" glyph-name="nav-report-car-model" horiz-adv-x="1271" d="M619.266 39.996v0c0 51.836-41.984 93.82-93.82 93.82-51.8 0-93.82-41.984-93.82-93.82 0-51.8 42.019-93.82 93.82-93.82 51.836 0 93.82 42.019 93.82 93.82zM1255.593 241.795c0-155.754-319.241-239.793-619.555-239.793-8.227 0-16.455 0.318-24.717 0.424 5.049 11.546 7.945 24.188 7.945 37.57 0 11.688-2.366 22.74-6.285 33.050 7.733-0.106 15.183-0.424 23.058-0.424 340.109 0 548.935 98.516 548.935 169.172 0 29.767-38.877 64.865-104.024 93.89l-21.504 9.746 28.707 64.547 21.539-9.816c120.62-53.672 145.902-115.747 145.902-158.367v0zM435.511 14.714c-226.586 28.707-419.098 106.178-419.098 227.081 0 47.704 31.214 116.383 179.977 172.279l23.022 8.545 24.823-66.101-22.987-8.58c-84.039-31.567-134.215-71.256-134.215-106.143 0-56.073 131.884-129.518 356.175-157.519-7.133-13.241-11.582-28.178-11.582-44.279 0-8.828 1.589-17.161 3.884-25.282v0zM895.922 456.905c-10.381-10.734-24.364-16.772-38.983-16.772-30.261 0-54.766 25.529-54.766 57.026 0 31.532 24.505 57.062 54.766 57.062 30.367 0 54.766-25.494 54.766-57.062 0.106-15.042-5.65-29.555-15.784-40.254v0zM472.198 456.905c-10.311-10.77-24.329-16.808-38.912-16.773-14.513-0.035-28.46 5.968-38.735 16.702-10.24 10.664-15.996 25.247-15.996 40.324 0 31.567 24.47 56.991 54.731 56.991 30.332 0 54.838-25.423 54.838-56.991 0.070-15.042-5.65-29.555-15.926-40.254v0zM416.373 757.502l24.152 102.118 0.353 1.624c2.472 13.524 7.168 19.668 15.748 26.2h377.574c10.063-8.015 13.030-13.453 15.254-26.094l24.435-103.848 9.004-37.111c-2.013-27.224-33.439-48.658-59.71-48.658h-356.034c-26.271 0-57.768 21.433-59.745 48.658l8.969 37.111zM1027.771 729.784c-3.814 3.919-9.004 6.109-14.371 6.073h-72.845c-3.319 0-6.568-0.953-9.393-2.754l-32.839 103c-22.21 74.187-50.176 98.304-98.798 98.304h-308.718c-55.79 0-74.787-25.141-98.763-98.304l-32.98-103.283c-3.072 1.907-6.568 2.931-10.134 2.966h-72.951c-5.367-0.035-10.522-2.26-14.336-6.215-3.849-3.884-5.967-9.287-5.899-14.901v-18.15c0-11.652 9.006-21.080 20.235-21.080l27.683-4.979c-9.287-19.032-14.018-40.113-13.7-61.511l-10.205-121.397c0-3.531 0.247-7.168 0.706-10.734-0.388-2.225-0.636-4.555-0.706-6.815v-146.15c0-9.958 3.814-19.562 10.664-26.624 6.78-7.027 15.996-10.946 25.6-10.911h55.296c9.604 0 18.82 4.061 25.6 11.088 6.78 6.991 10.558 16.525 10.558 26.447l14.901 20.303h444.557l15.642-20.198c0-9.958 3.814-19.562 10.664-26.624 6.78-7.027 16.031-10.946 25.6-10.911h55.261c19.95 0 36.122 16.772 36.193 37.535v146.15c0.035 2.26-0.212 4.52-0.671 6.709 0.424 3.566 0.6 7.203 0.671 10.84l-10.24 121.397c0 23.587-4.908 43.891-13.736 61.617l27.012 4.838c11.229 0 20.303 9.428 20.339 21.116v18.291c-0.035 5.544-2.119 10.911-5.897 14.866v0z" />
<glyph unicode="&#xe907;" glyph-name="nav-user-pad" horiz-adv-x="1247" d="M0.018 157.896v-123.37c0-34.104 27.603-61.707 61.707-61.707h863.766c34.104 0 61.707 27.603 61.707 61.707v123.37c0 34.104-27.603 61.707-61.707 61.707h-863.766c-34.104 0-61.707-27.603-61.707-61.707zM0.018 528.095v-123.414c0-34.059 27.603-61.707 61.707-61.707h863.766c34.104 0 61.707 27.648 61.707 61.707v123.414c0 34.059-27.603 61.707-61.707 61.707h-863.766c-34.104 0-61.707-27.648-61.707-61.707zM1172.32 960c-34.104 0-61.707-27.603-61.707-61.707v-863.766c0-34.104 27.603-61.707 61.707-61.707 34.059 0 61.707 27.603 61.707 61.707v863.766c0 34.104-27.648 61.707-61.707 61.707zM61.725 960h863.766c34.104 0 61.707-27.603 61.707-61.707v-123.414c0-34.059-27.603-61.663-61.707-61.663h-863.766c-34.104 0-61.707 27.603-61.707 61.663v123.414c0 34.104 27.603 61.707 61.707 61.707z" />
<glyph unicode="&#xe908;" glyph-name="nav-report-overview" d="M457.472 937.725c31.115 28.231 78.578 28.231 109.693 0v0l437.712-421.048c16.752-15.135 18.081-40.978 2.968-57.751-15.137-16.876-40.918-18.148-59.108-1.696v0-434.193c-0.023-45.18-36.655-81.793-81.835-81.793v0h-243.767v246.396c-0.042 31.801-25.865 57.581-57.666 57.581v0h-112.025c-15.297 0.011-29.972-6.061-40.789-16.878s-16.889-25.491-16.878-40.789v0-246.311h-238.255c-45.18 0.070-81.755 36.74-81.708 81.92v0 439.451l-7.039-6.699c-16.779-15.14-42.654-13.811-57.793 2.968s-13.811 42.654 2.968 57.793v0zM682.667 448h-341.333c-31.419 0-56.889-25.47-56.889-56.889s25.47-56.889 56.889-56.889v0h341.333c31.419 0 56.889 25.47 56.889 56.889s-25.47 56.889-56.889 56.889v0z" />
<glyph unicode="&#xe909;" glyph-name="delete" d="M360 776h-8c4.4 0 8 3.6 8 8v-8h304v8c0-4.4 3.6-8 8-8h-8v-72h72v80c0 35.3-28.7 64-64 64h-320c-35.3 0-64-28.7-64-64v-80h72v72zM864 704h-704c-17.7 0-32-14.3-32-32v-32c0-4.4 3.6-8 8-8h60.4l24.7-523c1.6-34.1 29.8-61 63.9-61h454c34.2 0 62.3 26.8 63.9 61l24.7 523h60.4c4.4 0 8 3.6 8 8v32c0 17.7-14.3 32-32 32zM731.3 120h-438.6l-24.2 512h487l-24.2-512z" />
<glyph unicode="&#xe90a;" glyph-name="nav-promotion-idea" horiz-adv-x="1071" d="M825.679 447.385c23.738 0 43.753 8.192 60.137 24.576 16.431 16.431 24.623 36.911 24.623 61.533s-8.192 44.87-24.623 60.788c-15.965 15.825-37.702 24.483-60.137 23.971-23.692 0-43.939-8.239-60.835-24.623-16.524-15.593-25.693-37.423-25.274-60.137 0-23.738 8.192-43.985 24.623-60.835 16.384-16.896 36.911-25.274 61.487-25.274zM654.811 674.294c23.692 0 43.753 8.192 60.137 24.576 16.431 16.431 24.623 36.911 24.623 61.533s-8.192 44.87-24.623 60.835c-15.965 15.779-37.655 24.436-60.137 23.924-23.738 0-43.939-8.192-60.835-24.576-16.524-15.593-25.693-37.469-25.274-60.183 0-23.692 8.192-43.939 24.576-60.835 16.431-16.849 36.911-25.274 61.533-25.274zM371.861 674.294c23.692 0 43.706 8.192 60.137 24.576 16.431 16.431 24.576 36.911 24.576 61.533s-8.145 44.87-24.576 60.835c-16.012 15.779-37.702 24.436-60.137 23.924-23.738 0-43.939-8.192-60.835-24.576-16.524-15.593-25.693-37.469-25.321-60.183 0-23.692 8.239-43.939 24.623-60.835 16.384-16.849 36.911-25.274 61.533-25.274zM200.993 447.385c23.692 0 43.753 8.192 60.137 24.576 16.384 16.431 24.576 36.911 24.576 61.533s-8.192 44.87-24.576 60.788c-16.012 15.825-37.702 24.483-60.137 23.971-23.738 0-43.985-8.239-60.881-24.623-16.477-15.593-25.693-37.423-25.228-60.137 0-23.738 8.145-43.985 24.576-60.835 16.384-16.896 36.911-25.274 61.533-25.274zM512.615 960c92.998 0 179.107-20.955 258.374-62.892 77.452-40.122 138.985-94.813 184.553-164.026 45.754-67.817 70.051-147.875 69.728-229.655 0-51.107-12.803-98.444-38.264-142.196-51.247-87.878-145.687-141.638-247.436-140.8h-98.444c-23.692 0-43.939-8.192-60.788-24.576-16.524-15.593-25.74-37.423-25.321-60.137 0-20.992 7.308-39.657 21.876-56.041 6.377-7.354 11.636-16.431 15.732-27.369s6.144-21.364 6.144-31.418c0-24.623-8.425-45.149-25.274-61.533-16.151-16.105-38.074-24.948-60.881-24.631-92.951 0-179.060 23.235-258.327 69.734-76.428 44.497-140.009 108.125-184.553 184.553-46.173 78.243-70.284 167.517-69.735 258.374 0 92.951 23.282 179.060 69.735 258.327 44.544 76.428 108.125 140.055 184.553 184.553 78.196 46.22 167.517 70.284 258.327 69.735z" />
<glyph unicode="&#xe90b;" glyph-name="nav-promotion-ad-plan" horiz-adv-x="931" d="M713.868 509.524h-496.593c-21.737 0-41.425 17.78-41.425 39.471 0 21.644 19.689 39.377 41.425 39.377h497.617c21.737 0 40.355-17.734 40.355-39.377 0-21.69-17.594-39.471-41.379-39.471zM713.868 314.405h-496.593c-21.737 0-41.425 17.687-41.425 39.377s19.689 39.471 41.425 39.471h497.617c21.737 0 40.355-17.78 40.355-39.471s-17.594-39.377-41.379-39.377zM721.129 118.216h-510.092c-19.642 0-34.164 17.78-34.164 39.424 0 22.714 15.546 39.424 34.164 39.424h511.116c17.594 0 33.094-17.734 33.094-39.424 0-20.713-16.57-39.424-34.118-39.424zM880.454 857.498h-94.161v-46.359c0-51.247-45.521-92.625-100.352-92.625s-100.352 41.379-100.352 92.625v46.359h-240.035v-46.359c0-51.247-45.521-92.625-100.352-92.625-54.877 0-100.399 41.379-100.399 92.625v46.359h-94.115c-26.903 0-50.688-20.713-50.688-46.359v-798.394c0-12.8 5.12-24.623 14.476-33.513 9.309-8.844 21.69-13.777 35.142-12.8h826.694c27.927 0 50.688 19.735 53.807 46.313v798.394c1.024 25.647-20.713 46.359-49.664 46.359zM684.893 774.703c-13.452 0-25.879 3.91-35.188 12.8s-14.476 20.713-14.476 33.513v92.625c0 25.647 21.737 46.359 50.688 46.359 28.998 0 50.688-20.713 50.688-46.359v-92.625c-1.024-25.647-24.809-46.313-51.712-46.313zM246.202 774.703c-26.857 0-50.688 20.666-50.688 46.313v92.625c0 25.647 23.831 46.359 50.688 46.359 26.903 0 50.735-20.713 50.735-46.359v-92.625c0-25.647-21.737-46.313-50.735-46.313z" />
<glyph unicode="&#xe90c;" glyph-name="nav-collapse" horiz-adv-x="1147" d="M127.361 144.16c19.988 0 36.905-7.21 50.831-21.628 13.926-14.459 20.89-31.621 20.89-51.487v-56.607c0-20.685-6.963-38.298-20.89-52.634-13.107-14.090-31.58-21.914-50.831-21.627h-56.689c-18.924-0.164-37.028 7.7-49.807 21.627-13.763 14.049-21.258 33.014-20.849 52.675v56.484c0 19.988 6.963 37.11 20.931 51.569 12.739 13.885 30.802 21.75 49.644 21.628h56.771zM1025.654 144.159c26.255 0 48.824-7.209 67.789-21.627 18.924-14.459 28.385-31.621 28.385-51.487v-56.607c0-20.685-9.462-38.298-28.385-52.634-18.964-14.459-41.533-21.627-67.789-21.627h-622.060c-27.197 0-50.258 7.168-69.222 21.627-18.924 14.418-28.385 31.908-28.385 52.675v56.484c0 19.988 9.462 37.11 28.385 51.569 18.964 14.418 42.025 21.627 69.222 21.627h622.060zM1121.828 654.029v-407.921l-305.93 188.334 305.93 219.587zM127.361 552.081c19.988 0 36.905-7.21 50.831-21.628s20.89-31.99 20.89-52.675v-56.484c0-20.029-6.963-37.151-20.89-51.569-13.107-14.090-31.58-21.914-50.831-21.627h-56.689c-18.924-0.123-37.028 7.7-49.807 21.627-13.599 13.681-21.094 32.236-20.849 51.528v56.566c0 20.644 6.963 38.257 20.931 52.634 12.739 13.926 30.802 21.75 49.644 21.628h56.771zM636.862 552.079c21.012 0 39.117-7.209 54.313-21.627 15.114-14.418 22.733-31.99 22.733-52.675v-56.484c0-20.029-7.619-37.151-22.733-51.569-14.5-14.172-34.038-21.914-54.313-21.627h-252.641c-20.644-0.451-40.632 7.332-55.501 21.627-14.582 13.107-22.897 31.867-22.735 51.528v56.566c0 20.644 7.58 38.257 22.735 52.634 14.868 14.295 34.857 22.118 55.501 21.627h252.641zM127.361 960c19.988 0 36.905-7.045 50.831-21.053s20.89-31.416 20.89-52.101v-56.525c0-20.685-6.963-38.257-20.89-52.675-13.107-14.090-31.58-21.914-50.831-21.627h-56.689c-18.924-0.123-37.028 7.7-49.807 21.627-13.763 14.049-21.258 33.014-20.849 52.675v56.525c0 20.685 6.963 38.093 20.931 52.101 13.804 14.008 30.392 21.053 49.644 21.053h56.771zM1025.654 960c26.255 0 48.824-7.045 67.789-21.053 18.924-14.008 28.385-31.416 28.385-52.101v-56.525c0-20.685-9.462-38.257-28.385-52.675-18.964-14.418-41.533-21.627-67.789-21.627h-622.060c-27.197 0-50.258 7.209-69.222 21.627-18.924 14.418-28.385 31.908-28.385 52.675v56.525c0 20.685 9.462 38.093 28.385 52.101 19.046 14.008 42.025 21.053 69.222 21.053h622.060z" />
<glyph unicode="&#xe90d;" glyph-name="image" d="M959.884 832c0.040-0.034 0.082-0.076 0.116-0.116v-767.77c-0.034-0.040-0.076-0.082-0.116-0.116h-895.77c-0.040 0.034-0.082 0.076-0.114 0.116v767.772c0.034 0.040 0.076 0.082 0.114 0.114h895.77zM960 896h-896c-35.2 0-64-28.8-64-64v-768c0-35.2 28.8-64 64-64h896c35.2 0 64 28.8 64 64v768c0 35.2-28.8 64-64 64v0zM832 672c0-53.020-42.98-96-96-96s-96 42.98-96 96 42.98 96 96 96 96-42.98 96-96zM896 128h-768v128l224 384 256-320h64l224 192z" />
<glyph unicode="&#xe90e;" glyph-name="images" horiz-adv-x="1152" d="M1088 832h-64v64c0 35.2-28.8 64-64 64h-896c-35.2 0-64-28.8-64-64v-768c0-35.2 28.8-64 64-64h64v-64c0-35.2 28.8-64 64-64h896c35.2 0 64 28.8 64 64v768c0 35.2-28.8 64-64 64zM128 768v-640h-63.886c-0.040 0.034-0.082 0.076-0.114 0.116v767.77c0.034 0.040 0.076 0.082 0.114 0.114h895.77c0.040-0.034 0.082-0.076 0.116-0.116v-63.884h-768c-35.2 0-64-28.8-64-64v0zM1088 0.116c-0.034-0.040-0.076-0.082-0.116-0.116h-895.77c-0.040 0.034-0.082 0.076-0.114 0.116v767.77c0.034 0.040 0.076 0.082 0.114 0.114h895.77c0.040-0.034 0.082-0.076 0.116-0.116v-767.768zM960 608c0-53.020-42.98-96-96-96s-96 42.98-96 96 42.98 96 96 96 96-42.98 96-96zM1024 64h-768v128l224 384 256-320h64l224 192z" />
<glyph unicode="&#xe90f;" glyph-name="nav-promotion" horiz-adv-x="1164" d="M865.094 440.993h-374.784c-31.232 0-56.227 24.948-56.227 56.227 0 31.232 24.995 56.18 56.227 56.18h374.784c31.232 0 56.18-24.948 56.18-56.18 0-31.279-24.948-56.227-56.18-56.227zM865.094 219.251h-374.784c-31.232 0-56.227 24.948-56.227 56.18s24.995 56.227 56.227 56.227h374.784c31.232 0 56.18-24.995 56.18-56.227s-24.948-56.18-56.18-56.18zM256.14 443.367c-31.046 0-56.18 25.181-56.18 56.227s25.135 56.227 56.18 56.227c31.046 0 56.227-25.181 56.227-56.227s-25.181-56.227-56.227-56.227zM256.14 224.743c-31.046 0-56.18 25.228-56.18 56.227 0 31.046 25.135 56.227 56.18 56.227s56.227-25.181 56.227-56.227c0-30.999-25.181-56.227-56.227-56.227zM1121.14 38.143v702.65c0 84.34-78.057 78.057-78.057 78.057h-440.367c-24.948 0-40.588 12.521-40.588 12.521s-18.711 31.232-53.062 81.175c-31.232 56.227-71.82 46.871-71.82 46.871h-340.433c-96.815 0-96.815-90.577-96.815-90.577v-824.46c0-103.052 78.103-90.577 78.103-90.577h974.336c81.222 0 68.701 84.34 68.701 84.34z" />
<glyph unicode="&#xe910;" glyph-name="nav-collapsed" horiz-adv-x="1142" d="M127.703 141.942c20.047 0 36.982-7.207 50.964-21.701 13.942-14.454 20.953-31.665 20.953-51.594v-56.793c0-20.677-7.010-38.321-20.953-52.775-13.154-14.1-31.665-21.977-50.964-21.622h-56.832c-18.983-0.197-37.14 7.68-49.94 21.622-13.824 14.1-21.346 33.122-20.913 52.854v56.635c0 20.047 6.971 37.218 20.953 51.673 12.8 13.982 30.878 21.858 49.822 21.701h56.911zM1028.429 141.942c26.348 0 48.955-7.207 67.978-21.701 18.944-14.454 28.475-31.665 28.475-51.594v-56.793c0-20.677-9.531-38.321-28.475-52.775-19.023-14.454-41.63-21.622-67.978-21.622h-623.774c-27.215 0-50.334 7.168-69.356 21.622-18.983 14.533-28.475 32.020-28.475 52.854v56.635c0 20.047 9.492 37.218 28.475 51.673 19.023 14.494 42.142 21.701 69.356 21.701h623.774zM818.076 653.233v-409.009l306.806 188.81-306.806 220.199zM127.703 550.992c20.047 0 36.982-7.209 50.964-21.702 13.942-14.454 20.953-32.059 20.953-52.815v-56.635c0-20.047-7.010-37.258-20.953-51.712-13.154-14.1-31.665-21.977-50.964-21.662h-56.832c-18.983-0.197-37.14 7.719-49.94 21.662-13.627 13.706-21.15 32.295-20.913 51.673v56.753c0 20.677 6.971 38.361 20.953 52.736 12.8 13.942 30.878 21.819 49.822 21.702h56.911zM638.6 550.991c21.071 0 39.227-7.207 54.43-21.701 15.202-14.454 22.843-32.059 22.843-52.815v-56.635c0-20.047-7.641-37.258-22.843-51.712-14.533-14.178-34.146-21.977-54.43-21.662h-253.361c-20.677-0.473-40.724 7.326-55.611 21.662-14.651 13.194-22.961 31.98-22.806 51.673v56.753c0 20.677 7.603 38.361 22.806 52.736 14.887 14.336 34.934 22.134 55.611 21.701h253.361zM127.703 960c20.047 0 36.982-7.010 50.964-21.11 13.942-14.060 20.953-31.468 20.953-52.263v-56.635c0-20.756-7.010-38.361-20.953-52.815-13.154-14.1-31.665-22.016-50.964-21.662h-56.832c-18.983-0.197-37.14 7.68-49.94 21.662-13.824 14.060-21.346 33.122-20.913 52.815v56.635c0 20.795 6.971 38.203 20.953 52.263 13.903 14.1 30.484 21.11 49.822 21.11h56.911zM1028.429 960c26.348 0 48.955-7.010 67.978-21.11 18.944-14.060 28.475-31.468 28.475-52.263v-56.635c0-20.756-9.531-38.361-28.475-52.815-19.023-14.454-41.63-21.662-67.978-21.662h-623.774c-27.215 0-50.334 7.207-69.356 21.662-18.983 14.454-28.475 31.98-28.475 52.815v56.635c0 20.795 9.492 38.203 28.475 52.263 19.062 14.1 42.142 21.11 69.356 21.11h623.774z" />
<glyph unicode="&#xe911;" glyph-name="nav-promotion-ad-group" d="M0 438.846v103.647l430.258-235.119c36.196-13.579 70.211-15.627 111.883-0.178l440.988 258.36v-103.602l-435.378-258.894c-42.162-18.298-91.314-18.298-126.397 0l-421.354 235.787zM0 216.367v104.804l406.439-221.451c17.274-9.439 40.515-17.586 65.135-20.391h28.004c32.501 5.031 47.104 10.195 67.629 22.929l415.922 258.182v-98.972l-430.881-268.956c-42.118-17.453-95.811-18.076-130.894-0.579l-421.354 224.434zM20.066 713.977l379.014 225.057c41.272 26.312 90.424 27.96 133.343 4.363l421.087-198.611c35.751-17.586 37.176-61.306 2.671-81.163l-414.052-226.215c-41.539-20.079-90.646-21.727-133.387-4.408l-386.003 199.814c-13.579 8.548-21.816 23.641-22.483 42.207-0.623 18.922 10.73 32.145 19.812 38.957z" />
<glyph unicode="&#xe912;" glyph-name="add" d="M900.7 527.8h-352.3v322.9c0 20.2-16.5 36.7-36.7 36.7s-36.7-16.5-36.7-36.7v-322.9h-352.2c-20.2 0-36.7-16.5-36.7-36.7s16.5-36.7 36.7-36.7h352.3v-381.6c0-20.2 16.5-36.7 36.7-36.7s36.7 16.5 36.7 36.7v381.6h352.3c20.2 0 36.7 16.5 36.7 36.7-0.1 20.2-16.6 36.7-36.8 36.7z" />
<glyph unicode="&#xe913;" glyph-name="prewiew" d="M512 755.2c-282.765 0-512-307.2-512-307.2s229.235-307.2 512-307.2 512 307.2 512 307.2-229.235 307.2-512 307.2zM512 192c-202.906 0-381.632 182.157-445.773 256.051 64.013 73.958 242.24 255.949 445.773 255.949 202.906 0 381.632-182.157 445.773-256.051-64.013-73.958-242.24-255.949-445.773-255.949zM512 614.4c-91.904 0-166.4-74.496-166.4-166.4s74.496-166.4 166.4-166.4 166.4 74.496 166.4 166.4-74.496 166.4-166.4 166.4zM512 332.8c-63.526 0-115.2 51.674-115.2 115.2s51.674 115.2 115.2 115.2 115.2-51.674 115.2-115.2c0-63.526-51.674-115.2-115.2-115.2z" />
<glyph unicode="&#xe914;" glyph-name="home-bhshcy" d="M296.741 960c30.565-0.015 57.898-19.034 68.535-47.689l53.833-145.262c10.646-28.68 38.016-47.705 68.608-47.689h463.141c40.396 0 73.143-32.747 73.143-73.143v-637.074c0-40.396-32.747-73.143-73.143-73.143h-877.714c-40.396 0-73.143 32.747-73.143 73.143v877.714c0 40.396 32.747 73.143 73.143 73.143h223.598zM585.193 156.036h-146.328v-24.655c0-13.605 10.967-24.714 24.398-24.714h97.532c13.43 0 24.398 11.11 24.398 24.714v24.655zM512 576c-94.248 0-170.667-77.41-170.667-172.881 0-58.756 29.031-110.561 73.134-141.81v-55.845c0-13.605 10.967-24.714 24.398-24.714h146.328c13.43 0 24.339 11.11 24.339 24.714v55.845c44.162 31.249 73.134 82.995 73.134 141.81 0 95.471-76.419 172.881-170.667 172.881zM985.234 913.042c20.198 0 36.571-16.374 36.571-36.571v-73.143c0-20.198-16.374-36.571-36.571-36.571h-470.162c-14.352 0.017-27.367 8.427-33.28 21.504l-33.207 73.143c-5.12 11.323-4.14 24.471 2.603 34.91s18.324 16.739 30.75 16.729h503.296z" />
<glyph unicode="&#xe915;" glyph-name="home-jrtfjh" horiz-adv-x="979" d="M906.278 847.835c39 0 69.832-29.224 68.189-68.189v0-741.897c-1.596-38.965-32.451-68.189-71.416-68.189v0h-832.808c-38.965 0-69.832 29.224-69.832 68.189v0 741.862c0 38.965 30.867 68.189 69.832 68.189v0h68.177v-56.804c0-43.836 37.334-77.93 81.169-77.93v0h24.353c47.063 0 81.158 35.679 81.158 77.93v0 56.804h324.689v-56.804c0-43.836 37.322-77.93 81.158-77.93v0h24.353c47.063 0 81.158 35.679 81.158 77.93v0 56.84zM648.181 359.955h-339.289v-60.126h248.391c-30.82-43.847-63.318-82.812-95.77-118.538v0l61.675-34.036c50.302 58.401 92.542 110.381 124.993 157.456v0 55.244zM472.85 473.541l-50.338-34.094c14.659-17.851 34.141-43.836 60.126-76.334v0l55.161 35.726c-16.243 21.126-38.953 47.11-64.95 74.703v0zM537.788 585.53h-87.66c-51.946-69.785-118.527-123.409-199.696-157.445 11.384-12.91 27.639-29.165 42.251-55.161 81.158 40.608 142.833 90.911 191.539 150.99 43.777-58.448 105.523-107.154 183.441-146.119 12.934 17.792 29.177 37.275 38.953 55.161-76.287 32.451-137.962 77.883-183.441 137.962v0l14.612 14.612zM753.704 959.8c19.424 0 34.036-14.553 34.036-34.036v0-134.735c0-17.851-14.553-32.463-34.036-32.463v0h-24.353c-19.483 0.059-35.691 14.612-34.094 34.094v0 133.045c0 19.483 14.612 34.094 34.094 34.094v0zM243.978 959.8c19.483 0 34.094-14.553 34.094-34.036v0-134.735c0-17.851-14.612-32.463-34.094-32.463v0h-24.353c-19.483 0.059-35.726 14.612-34.094 34.094v0 133.045c0 19.483 14.612 34.094 34.094 34.094v0z" />
<glyph unicode="&#xe916;" glyph-name="home-xsbzztggz" horiz-adv-x="896" d="M767.557 960c70.683 0.244 128.185-56.852 128.442-127.535v-768.906c-0.026-33.977-13.654-66.529-37.841-90.391-24.121-23.846-56.682-37.203-90.601-37.167h-639.115c-70.683-0.244-128.185 56.852-128.442 127.535v768.906c0.033 33.969 13.66 66.511 37.841 90.368 24.118 23.854 56.679 37.22 90.601 37.191h639.115zM192.326 192.001h-0.233c-16.943 0.055-33.214-6.622-45.234-18.563s-18.804-28.168-18.859-45.111v-0.233c-0.094-25.911 15.445-49.348 39.371-59.358s51.524-4.62 69.926 13.655c18.402 18.275 23.982 45.836 14.137 69.83s-33.173 39.694-59.108 39.779zM448.326 192h-0.442c-16.943 0-33.192-6.731-45.172-18.711s-18.711-28.23-18.711-45.172c-0.094-25.934 15.445-49.371 39.371-59.381s51.524-4.62 69.926 13.655c18.402 18.275 23.982 45.836 14.137 69.83s-33.173 39.694-59.108 39.779zM704.325 192h-0.442c-35.282 0-63.884-28.602-63.884-63.884-0.094-25.934 15.445-49.371 39.371-59.381s51.524-4.62 69.926 13.655c18.402 18.275 23.982 45.836 14.137 69.83s-33.173 39.694-59.108 39.779zM192.117 448c-16.947 0.061-33.224-6.613-45.249-18.555s-18.812-28.172-18.867-45.119v-0.442c-0.009-25.911 15.606-49.298 39.564-59.229s51.539-4.452 69.881 13.884c18.342 18.335 23.832 45.915 13.909 69.876s-33.303 39.586-59.238 39.586zM448.116 448h-0.233c-16.943 0-33.192-6.731-45.172-18.711s-18.711-28.23-18.711-45.172v-0.233c0-25.933 15.621-49.312 39.58-59.236s51.536-4.438 69.873 13.899c18.337 18.337 23.823 45.915 13.899 69.873s-33.303 39.58-59.236 39.58zM704.116 448h-0.233c-35.282 0-63.884-28.602-63.884-63.884v-0.233c0-25.933 15.621-49.312 39.58-59.236s51.536-4.438 69.873 13.899c18.337 18.337 23.823 45.915 13.899 69.873s-33.303 39.58-59.236 39.58zM705 831.999h-513.326c-35.309-0.484-63.68-29.246-63.68-64.558v-126.883c-0.486-35.159 27.614-64.061 62.773-64.559h512.907c35.3 0.497 63.654 29.256 63.651 64.559v126.883c0.299 16.826-6.1 33.082-17.789 45.19s-27.709 19.075-44.536 19.369zM554.667 746.667c23.564 0 42.667-19.103 42.667-42.667s-19.103-42.667-42.667-42.667h-213.333c-23.564 0-42.667 19.103-42.667 42.667s19.103 42.667 42.667 42.667h213.333z" />
<glyph unicode="&#xe917;" glyph-name="home-zxzdjh" horiz-adv-x="901" d="M826.026 960c41.471 0 75.094-31.399 75.094-70.126v0-876.916c0-59.546-71.996-92.983-121.314-56.347v0l-283.383 196.599c-27.175 20.192-65.301 20.177-92.458-0.036v0l-282.613-196.366c-49.299-36.689-121.351-3.271-121.351 56.294v0 876.772c0 38.727 33.624 70.126 75.094 70.126v0zM449.78 755.2c-28.056 0-54.525-4.608-79.458-15.513-24.34-10.234-46.523-24.982-65.379-43.466-18.529-18.753-33.33-40.851-43.62-65.123-10.905-24.882-15.564-51.197-15.564-80.686 0-27.902 6.246-55.805 15.564-80.686 10.905-24.831 24.933-46.538 43.62-65.123 18.687-18.636 40.446-32.612 65.379-43.466 25.118-10.643 52.181-15.927 79.458-15.513 28.005 0 56.061 4.608 80.994 15.513 24.34 10.234 46.523 24.982 65.379 43.466 18.529 18.753 33.33 40.851 43.62 65.123 10.905 24.882 15.564 51.197 15.564 80.686s-6.246 55.805-15.564 80.686c-10.29 24.271-25.091 46.37-43.62 65.123-18.855 18.484-41.038 33.232-65.379 43.466-24.933 10.854-51.402 15.513-80.994 15.513zM436.059 673.285c7.049 0.097 13.839-2.66 18.824-7.645s7.743-11.774 7.645-18.824v-84.424h86.062c12.055 0 22.713-9.562 24.551-22.494l0.279-3.923c0.111-7.058-2.64-13.861-7.626-18.857s-11.784-7.761-18.842-7.663h-110.893c-7.049-0.097-13.839 2.66-18.824 7.645s-7.743 11.774-7.645 18.824v110.893c-0.097 7.049 2.66 13.839 7.645 18.824s11.774 7.743 18.824 7.645z" />
<glyph unicode="&#xe926;" glyph-name="file-text" d="M917.806 730.924c-22.212 30.292-53.174 65.7-87.178 99.704s-69.412 64.964-99.704 87.178c-51.574 37.82-76.592 42.194-90.924 42.194h-496c-44.112 0-80-35.888-80-80v-864c0-44.112 35.888-80 80-80h736c44.112 0 80 35.888 80 80v624c0 14.332-4.372 39.35-42.194 90.924zM785.374 785.374c30.7-30.7 54.8-58.398 72.58-81.374h-153.954v153.946c22.984-17.78 50.678-41.878 81.374-72.572zM896 16c0-8.672-7.328-16-16-16h-736c-8.672 0-16 7.328-16 16v864c0 8.672 7.328 16 16 16 0 0 495.956 0.002 496 0v-224c0-17.672 14.326-32 32-32h224v-624zM736 128h-448c-17.672 0-32 14.326-32 32s14.328 32 32 32h448c17.674 0 32-14.326 32-32s-14.326-32-32-32zM736 256h-448c-17.672 0-32 14.326-32 32s14.328 32 32 32h448c17.674 0 32-14.326 32-32s-14.326-32-32-32zM736 384h-448c-17.672 0-32 14.326-32 32s14.328 32 32 32h448c17.674 0 32-14.326 32-32s-14.326-32-32-32z" />
<glyph unicode="&#xe948;" glyph-name="location" d="M512 960c-176.732 0-320-143.268-320-320 0-320 320-704 320-704s320 384 320 704c0 176.732-143.27 320-320 320zM512 444c-108.248 0-196 87.752-196 196s87.752 196 196 196 196-87.752 196-196-87.752-196-196-196zM388 640c0 68.483 55.517 124 124 124s124-55.517 124-124c0-68.483-55.517-124-124-124s-124 55.517-124 124z" />
<glyph unicode="&#xe962;" glyph-name="floppy-disk" d="M896 960h-896v-1024h1024v896l-128 128zM512 832h128v-256h-128v256zM896 64h-768v768h64v-320h576v320h74.978l53.022-53.018v-714.982z" />
<glyph unicode="&#xe97a;" glyph-name="spinner" d="M384 832c0 70.692 57.308 128 128 128s128-57.308 128-128c0-70.692-57.308-128-128-128s-128 57.308-128 128zM655.53 719.53c0 70.692 57.308 128 128 128s128-57.308 128-128c0-70.692-57.308-128-128-128s-128 57.308-128 128zM832 448c0 35.346 28.654 64 64 64s64-28.654 64-64c0-35.346-28.654-64-64-64s-64 28.654-64 64zM719.53 176.47c0 35.346 28.654 64 64 64s64-28.654 64-64c0-35.346-28.654-64-64-64s-64 28.654-64 64zM448.002 64c0 0 0 0 0 0 0 35.346 28.654 64 64 64s64-28.654 64-64c0 0 0 0 0 0 0-35.346-28.654-64-64-64s-64 28.654-64 64zM176.472 176.47c0 0 0 0 0 0 0 35.346 28.654 64 64 64s64-28.654 64-64c0 0 0 0 0 0 0-35.346-28.654-64-64-64s-64 28.654-64 64zM144.472 719.53c0 0 0 0 0 0 0 53.019 42.981 96 96 96s96-42.981 96-96c0 0 0 0 0 0 0-53.019-42.981-96-96-96s-96 42.981-96 96zM56 448c0 39.765 32.235 72 72 72s72-32.235 72-72c0-39.765-32.235-72-72-72s-72 32.235-72 72z" />
<glyph unicode="&#xe986;" glyph-name="search" d="M992.262 88.604l-242.552 206.294c-25.074 22.566-51.89 32.926-73.552 31.926 57.256 67.068 91.842 154.078 91.842 249.176 0 212.078-171.922 384-384 384-212.076 0-384-171.922-384-384s171.922-384 384-384c95.098 0 182.108 34.586 249.176 91.844-1-21.662 9.36-48.478 31.926-73.552l206.294-242.552c35.322-39.246 93.022-42.554 128.22-7.356s31.892 92.898-7.354 128.22zM384 320c-141.384 0-256 114.616-256 256s114.616 256 256 256 256-114.616 256-256-114.614-256-256-256z" />
<glyph unicode="&#xe9b6;" glyph-name="switch" d="M640 813.412v-135.958c36.206-15.804 69.5-38.408 98.274-67.18 60.442-60.44 93.726-140.8 93.726-226.274s-33.286-165.834-93.726-226.274c-60.44-60.44-140.798-93.726-226.274-93.726s-165.834 33.286-226.274 93.726c-60.44 60.44-93.726 140.8-93.726 226.274s33.286 165.834 93.726 226.274c28.774 28.774 62.068 51.378 98.274 67.182v135.956c-185.048-55.080-320-226.472-320-429.412 0-247.424 200.578-448 448-448 247.424 0 448 200.576 448 448 0 202.94-134.95 374.332-320 429.412zM448 960h128v-512h-128z" />
<glyph unicode="&#xe9bb;" glyph-name="list" d="M384 896h640v-128h-640v128zM384 512h640v-128h-640v128zM384 128h640v-128h-640v128zM0 832c0 70.692 57.308 128 128 128s128-57.308 128-128c0-70.692-57.308-128-128-128s-128 57.308-128 128zM0 448c0 70.692 57.308 128 128 128s128-57.308 128-128c0-70.692-57.308-128-128-128s-128 57.308-128 128zM0 64c0 70.692 57.308 128 128 128s128-57.308 128-128c0-70.692-57.308-128-128-128s-128 57.308-128 128z" />
<glyph unicode="&#xe9c7;" glyph-name="download" d="M736 512l-256-256-256 256h160v384h192v-384zM480 256h-480v-256h960v256h-480zM896 128h-128v64h128v-64z" />
<glyph unicode="&#xe9c8;" glyph-name="upload" d="M480 256h-480v-256h960v256h-480zM896 128h-128v64h128v-64zM224 640l256 256 256-256h-160v-320h-192v320z" />
<glyph unicode="&#xea52;" glyph-name="checkbox-checked" d="M896 960h-768c-70.4 0-128-57.6-128-128v-768c0-70.4 57.6-128 128-128h768c70.4 0 128 57.6 128 128v768c0 70.4-57.6 128-128 128zM448 165.49l-237.254 237.256 90.51 90.508 146.744-146.744 306.746 306.746 90.508-90.51-397.254-397.256z" />
<glyph unicode="&#xea53;" glyph-name="checkbox-unchecked" d="M896 960h-768c-70.4 0-128-57.6-128-128v-768c0-70.4 57.6-128 128-128h768c70.4 0 128 57.6 128 128v768c0 70.4-57.6 128-128 128zM896 64h-768v768h768v-768z" />
<glyph unicode="&#xea54;" glyph-name="radio-checked" d="M512 960c-282.77 0-512-229.23-512-512s229.23-512 512-512 512 229.23 512 512-229.23 512-512 512zM512 64c-212.078 0-384 171.922-384 384s171.922 384 384 384c212.078 0 384-171.922 384-384s-171.922-384-384-384zM320 448c0 106.039 85.961 192 192 192s192-85.961 192-192c0-106.039-85.961-192-192-192s-192 85.961-192 192z" />
<glyph unicode="&#xea56;" glyph-name="radio-unchecked" d="M512 960c-282.77 0-512-229.23-512-512s229.23-512 512-512 512 229.23 512 512-229.23 512-512 512zM512 64c-212.078 0-384 171.922-384 384s171.922 384 384 384c212.078 0 384-171.922 384-384s-171.922-384-384-384z" />
<glyph unicode="&#xea7b;" glyph-name="indent-increase" d="M0 896h1024v-128h-1024zM384 704h640v-128h-640zM384 512h640v-128h-640zM384 320h640v-128h-640zM0 128h1024v-128h-1024zM0 256v384l256-192z" />
<glyph unicode="&#xea7c;" glyph-name="indent-decrease" d="M0 896h1024v-128h-1024zM384 704h640v-128h-640zM384 512h640v-128h-640zM384 320h640v-128h-640zM0 128h1024v-128h-1024zM256 640v-384l-256 192z" />
</font>
</defs>
</svg>
